{"title":"Big Tit Christmas DVD","uid":7032442,"size":2179722370,"categoryP":"porn","categoryS":"movies","magnet":"?xt=urn:btih:aa7eccaeff207b5e7cf80f6c1d087d1b1702296d&amp;dn=Big+Tit+Christmas+DVD&amp;tr=udp%3A%2F%2Ftracker.openbittorrent.com%3A80&amp;tr=udp%3A%2F%2Fopen.demonii.com%3A1337&amp;tr=udp%3A%2F%2Ftracker.coppersurfer.tk%3A6969&amp;tr=udp%3A%2F%2Fexodus.desync.com%3A6969","seeders":0,"leechers":1,"uploader":"tigris1968","files":123,"time":1329261784,"description":"Big Tit Christmas DVD\n\nBrazzers\n\nCategory All Sex, Big Tits, Threesomes &amp; More, Holiday Themed \n\nStarring Phoenix Marie, Shyla Stylez, Kagney Linn Karter, Nikki Sexx, Rachel Roxxx, Sienna West, Shawna Lenee, Carmella Bing, Savannah Stern, Mindy Main, Dylan Riley\n\nStudio Brazzers \n\nDiscs 1 \n\nRelease Date Dec 24, 2010\n\n &lt;a href=&quot;\nhttp://bayimg.com/aaMfFaADk&quot; rel=&quot;nofollow&quot; target=&quot;_NEW&quot;&gt;\nhttp://bayimg.com/aaMfFaADk&lt;/a&gt;\n &lt;a href=&quot;\nhttp://bayimg.com/AamfgAadk&quot; rel=&quot;nofollow&quot; target=&quot;_NEW&quot;&gt;\nhttp://bayimg.com/AamfgAadk&lt;/a&gt;\n &lt;a href=&quot;\nhttp://bayimg.com/aaMFHaAdK&quot; rel=&quot;nofollow&quot; target=&quot;_NEW&quot;&gt;\nhttp://bayimg.com/aaMFHaAdK&lt;/a&gt;\n &lt;a href=&quot;\nhttp://bayimg.com/aAMFJaADK&quot; rel=&quot;nofollow&quot; target=&quot;_NEW&quot;&gt;\nhttp://bayimg.com/aAMFJaADK&lt;/a&gt;\n\nBig Tit Christmas DVD\n\nGeneral\nComplete name                    : C:\\Downloads\\Big Tit Christmas DVD\\dvd\\Big Tit Christmas DVD.avi\nFormat                           : AVI\nFormat/Info                      : Audio Video Interleave\nFormat profile                   : OpenDML\nFile size                        : 1.99 GiB\nDuration                         : 3h 32mn\nOverall bit rate                 : 1 340 Kbps\nWriting application              : MEncoder SVN-r30881(20100311-gcc4.3.3)\nWriting library                  : MPlayer\n\nVideo\nID                               : 0\nFormat                           : MPEG-4 Visual\nFormat profile                   : Advanced Simple@L5\nFormat settings, BVOP            : 2\nFormat settings, QPel            : No\nFormat settings, GMC             : No warppoints\nFormat settings, Matrix          : Default (H.263)\nCodec ID                         : XVID\nCodec ID/Hint                    : XviD\nDuration                         : 3h 32mn\nBit rate                         : 30.7 Kbps\nWidth                            : 720 pixels\nHeight                           : 480 pixels\nDisplay aspect ratio             : 3:2\nFrame rate                       : 25.000 fps\nStandard                         : NTSC\nColor space                      : YUV\nChroma subsampling               : 4:2:0\nBit depth                        : 8 bits\nScan type                        : Progressive\nCompression mode                 : Lossy\nBits/(Pixel*Frame)               : 0.004\nStream size                      : 46.7 MiB (2%)\nWriting library                  : XviD 1.2.1 (UTC 2008-12-04)\n\nAudio\nID                               : 1\nFormat                           : MPEG Audio\nCodec ID                         : 55\nCodec ID/Hint                    : MP3\nDuration                         : 3h 32mn\nBit rate                         : 128 Kbps\nChannel(s)                       : 2 channels\nSampling rate                    : 44.1 KHz\nCompression mode                 : Lossy\nStream size                      : 195 MiB (10%)\nAlignment                        : Aligned on interleaves","torrent":{"xt":"urn:btih:aa7eccaeff207b5e7cf80f6c1d087d1b1702296d","amp;dn":"Big+Tit+Christmas+DVD","amp;tr":["udp%3A%2F%2Ftracker.openbittorrent.com%3A80","udp%3A%2F%2Fopen.demonii.com%3A1337","udp%3A%2F%2Ftracker.coppersurfer.tk%3A6969","udp%3A%2F%2Fexodus.desync.com%3A6969"],"infoHash":"aa7eccaeff207b5e7cf80f6c1d087d1b1702296d","infoHashBuffer":{"type":"Buffer","data":[170,126,204,174,255,32,123,94,124,248,15,108,29,8,125,27,23,2,41,109]},"announce":[],"urlList":[]}}